<svg width="24" height="24" viewBox="0 0 24 24" fill="none" xmlns="http://www.w3.org/2000/svg">
<rect x="5" y="8" width="14" height="11" rx="1" stroke="url(#paint0_linear_1_2)" stroke-width="2"/>
<mask id="path-2-inside-1_1_2" fill="white">
<path d="M17 9C17 7.4087 16.4732 5.88258 15.5355 4.75736C14.5979 3.63214 13.3261 3 12 3C10.6739 3 9.40215 3.63214 8.46447 4.75736C7.52678 5.88258 7 7.4087 7 9L12 9H17Z"/>
</mask>
<path d="M17 9C17 7.4087 16.4732 5.88258 15.5355 4.75736C14.5979 3.63214 13.3261 3 12 3C10.6739 3 9.40215 3.63214 8.46447 4.75736C7.52678 5.88258 7 7.4087 7 9L12 9H17Z" stroke="url(#paint1_linear_1_2)" stroke-width="4" mask="url(#path-2-inside-1_1_2)"/>
<circle cx="12" cy="14" r="0.5" stroke="url(#paint2_linear_1_2)"/>
<circle cx="8" cy="16" r="0.5" stroke="#2575FC"/>
<circle cx="16" cy="16" r="0.5" stroke="#2575FC"/>
<path d="M8 16L11.1679 11.2481C11.5638 10.6543 12.4362 10.6543 12.8321 11.2481L16 16" stroke="url(#paint3_linear_1_2)" stroke-width="2"/>
<defs>
<linearGradient id="paint0_linear_1_2" x1="12" y1="7" x2="12" y2="20" gradientUnits="userSpaceOnUse">
<stop stop-color="#6A11CB"/>
<stop offset="1" stop-color="#2575FC"/>
</linearGradient>
<linearGradient id="paint1_linear_1_2" x1="12" y1="3" x2="12" y2="15" gradientUnits="userSpaceOnUse">
<stop offset="0.360577" stop-color="#6A11CB"/>
<stop offset="1" stop-color="#2575FC"/>
</linearGradient>
<linearGradient id="paint2_linear_1_2" x1="12" y1="13" x2="12" y2="15" gradientUnits="userSpaceOnUse">
<stop stop-color="#6A11CB"/>
<stop offset="1" stop-color="#2575FC"/>
</linearGradient>
<linearGradient id="paint3_linear_1_2" x1="12" y1="10" x2="12" y2="16" gradientUnits="userSpaceOnUse">
<stop stop-color="#6A11CB"/>
<stop offset="1" stop-color="#2575FC"/>
</linearGradient>
</defs>
</svg>
